<?xml version="1.0" encoding="UTF-8" standalone="no"?>
<svg width="19px" height="14px" viewBox="0 0 19 14" version="1.1" xmlns="http://www.w3.org/2000/svg" xmlns:xlink="http://www.w3.org/1999/xlink">
    <!-- Generator: Sketch 49.2 (51160) - http://www.bohemiancoding.com/sketch -->
    <title>arrow-right</title>
    <desc>Created with Sketch.</desc>
    <defs></defs>
    <g id="Page-1" stroke="none" stroke-width="1" fill="none" fill-rule="evenodd">
        <g id="arrow-right" fill="#393030" fill-rule="nonzero">
            <g id="Page-1">
                <path d="M12.4672846,13.2029011 C12.4609447,13.2094197 12.4545147,13.2158501 12.4479963,13.2221902 C12.0590765,13.6004747 11.4371346,13.5918532 11.0588501,13.2029334 C10.6668093,12.7998707 10.6668534,12.157973 11.0589495,11.7549641 L14.6790434,8.03411547 L1.53414321,8.03411547 C0.963001685,8.03411547 0.5,7.57111379 0.5,6.99997226 C0.5,6.42883074 0.963001685,5.96582906 1.53414321,5.96582906 L14.6790434,5.96582906 L11.0589309,2.24496129 C10.666848,1.84196597 10.6668122,1.20008741 11.0588501,0.797048339 C11.0651845,0.79053615 11.071609,0.784112144 11.0781216,0.777778176 C11.4670585,0.399511793 12.0889996,0.408161919 12.467266,0.797098772 L18.5,7.00000948 L12.4672846,13.2029011 Z" id="path-1"></path>
            </g>
        </g>
    </g>
</svg>