<?xml version="1.0" encoding="utf-8"?>
<!-- Generator: Adobe Illustrator 21.1.0, SVG Export Plug-In . SVG Version: 6.00 Build 0)  -->
<svg version="1.1" id="Слой_1" xmlns="http://www.w3.org/2000/svg" xmlns:xlink="http://www.w3.org/1999/xlink" x="0px" y="0px"
	 viewBox="0 0 12 12" enable-background="new 0 0 12 12" xml:space="preserve">
<title>icons/next song</title>
<desc>Created with Sketch.</desc>
<g id="icons_x2F_next-song">
	<g id="Combined-Shape">
		<path id="path-1_1_" fill="#6AA2FF" d="M2,0.8l7.5,3.9c0.7,0.4,1,1.2,0.6,1.9C10,6.9,9.8,7.1,9.6,7.2L2,11.2
			c-0.7,0.4-1.5,0.1-1.9-0.6C0.1,10.4,0,10.1,0,9.9V2.1c0-0.8,0.6-1.4,1.4-1.4C1.6,0.7,1.8,0.7,2,0.8z M12,0.8v10.5
			c0,0.4-0.3,0.8-0.8,0.8s-0.8-0.3-0.8-0.8V0.8c0-0.4,0.3-0.8,0.8-0.8S12,0.3,12,0.8z"/>
	</g>
</g>
</svg>
