<?xml version="1.0" encoding="utf-8"?>
<!-- Generator: Adobe Illustrator 21.1.0, SVG Export Plug-In . SVG Version: 6.00 Build 0)  -->
<svg version="1.1" id="Слой_1" xmlns="http://www.w3.org/2000/svg" xmlns:xlink="http://www.w3.org/1999/xlink" x="0px" y="0px"
	 viewBox="0 0 12 16" enable-background="new 0 0 12 16" xml:space="preserve">
<g>
	<path id="path-1" fill="#FFFFFF" d="M2,0c1.1,0,2,1.1,2,2v12c0,1.1-0.9,2-2,2s-2-1.1-2-2V2C0,0.9,0.9,0,2,0z M10,0c1.1,0,2,1.1,2,2
		v12c0,1.1-0.9,2-2,2s-2-1.1-2-2V2C8,0.9,8.9,0,10,0z"/>
</g>
<title>pause</title>
<desc>Created with Sketch.</desc>
<g id="Page-1">
	<g id="Artboard" transform="translate(-534.000000, -237.000000)">
		<g id="Group-5" transform="translate(424.000000, 130.000000)">
			<g id="icons_x2F_play-blue" transform="translate(110.000000, 107.000000)">
				<g id="pause">
					<g id="Combined-Shape">
						<path id="path-1_1_" fill="#FFFFFF" d="M2,0c1.1,0,2,1.1,2,2v12c0,1.1-0.9,2-2,2s-2-1.1-2-2V2C0,0.9,0.9,0,2,0z M10,0
							c1.1,0,2,1.1,2,2v12c0,1.1-0.9,2-2,2s-2-1.1-2-2V2C8,0.9,8.9,0,10,0z"/>
					</g>
				</g>
			</g>
		</g>
	</g>
</g>
</svg>
