<?xml version="1.0" encoding="utf-8"?>
<!-- Generator: Adobe Illustrator 21.1.0, SVG Export Plug-In . SVG Version: 6.00 Build 0)  -->
<svg version="1.1" id="Слой_1" xmlns="http://www.w3.org/2000/svg" xmlns:xlink="http://www.w3.org/1999/xlink" x="0px" y="0px"
	 viewBox="0 0 12 12" enable-background="new 0 0 12 12" xml:space="preserve">
<title>icons/prev song</title>
<desc>Created with Sketch.</desc>
<g id="icons_x2F_prev-song">
	<g id="Combined-Shape">
		<path id="path-1_1_" fill="#6AA2FF" d="M10,0.8c0.2-0.1,0.4-0.2,0.6-0.2c0.8,0,1.4,0.6,1.4,1.4v7.8c0,0.2-0.1,0.4-0.2,0.6
			c-0.4,0.7-1.2,1-1.9,0.6L2.4,7.2C2.2,7.1,2,6.9,1.8,6.6C1.5,6,1.7,5.1,2.4,4.8L10,0.8z M0,0.8C0,0.3,0.3,0,0.8,0s0.8,0.3,0.8,0.8
			v10.5c0,0.4-0.3,0.8-0.8,0.8S0,11.7,0,11.2V0.8z"/>
	</g>
</g>
</svg>
