<?xml version="1.0" encoding="UTF-8"?><!DOCTYPE svg PUBLIC "-//W3C//DTD SVG 1.1//EN" "http://www.w3.org/Graphics/SVG/1.1/DTD/svg11.dtd"><svg xmlns="http://www.w3.org/2000/svg" xmlns:xlink="http://www.w3.org/1999/xlink"><defs>
        <path d="M3.155 1.165l11.4 5.918a2.16 2.16 0 0 1 0 3.834l-11.4 5.918A2.16 2.16 0 0 1 0 14.918V3.082a2.16 2.16 0 0 1 3.155-1.917z" id="a"/>
    </defs><symbol id="icon-arrow-right" viewBox="0 0 19 14">
    <title>
        arrow-right
    </title>
    <path d="M12.467 13.203a.983.983 0 0 1-1.408 0 1.038 1.038 0 0 1 0-1.448l3.62-3.72H1.534a1.034 1.034 0 1 1 0-2.07H14.68l-3.62-3.72a1.038 1.038 0 0 1 .02-1.467.982.982 0 0 1 1.388.02L18.5 7l-6.033 6.203z" fill-rule="nonzero"/>
</symbol><symbol id="icon-facebook" viewBox="0 0 10 19">
    <title>
        facebook
    </title>
    <path d="M9.766.157v2.946H8.014c-.64 0-1.071.134-1.295.402-.223.268-.335.67-.335 1.205v2.11h3.27l-.435 3.303H6.384v8.471H2.97v-8.47H.123V6.82H2.97V4.387c0-1.384.387-2.457 1.161-3.22C4.904.404 5.934.023 7.222.023c1.093 0 1.941.045 2.544.134z" fill-rule="evenodd"/>
</symbol><symbol id="icon-next" viewBox="0 0 12 12">
    <title>
        icons/next song
    </title>
    <path d="M2 .8l7.5 3.9c.7.4 1 1.2.6 1.9-.1.3-.3.5-.5.6l-7.6 4c-.7.4-1.5.1-1.9-.6 0-.2-.1-.5-.1-.7V2.1C0 1.3.6.7 1.4.7c.2 0 .4 0 .6.1zm10 0v10.5c0 .4-.3.8-.8.8s-.8-.3-.8-.8V.8c0-.4.3-.8.8-.8s.8.3.8.8z"/>
</symbol><symbol id="icon-pause" viewBox="0 0 12 16">
    <path d="M2 0c1.1 0 2 1.1 2 2v12c0 1.1-.9 2-2 2s-2-1.1-2-2V2C0 .9.9 0 2 0zm8 0c1.1 0 2 1.1 2 2v12c0 1.1-.9 2-2 2s-2-1.1-2-2V2c0-1.1.9-2 2-2z"/>
    <title>
        pause
    </title>
    <path d="M2 0c1.1 0 2 1.1 2 2v12c0 1.1-.9 2-2 2s-2-1.1-2-2V2C0 .9.9 0 2 0zm8 0c1.1 0 2 1.1 2 2v12c0 1.1-.9 2-2 2s-2-1.1-2-2V2c0-1.1.9-2 2-2z"/>
</symbol><symbol id="icon-play" viewBox="0 0 16 18">
    <title>
        Group
    </title>
    
    <use xlink:href="#a" fill-rule="evenodd"/>
</symbol><symbol id="icon-prev" viewBox="0 0 12 12">
    <title>
        icons/prev song
    </title>
    <path d="M10 .8c.2-.1.4-.2.6-.2.8 0 1.4.6 1.4 1.4v7.8c0 .2-.1.4-.2.6-.4.7-1.2 1-1.9.6L2.4 7.2c-.2-.1-.4-.3-.6-.6-.3-.6-.1-1.5.6-1.8l7.6-4zM0 .8C0 .3.3 0 .8 0s.8.3.8.8v10.5c0 .4-.3.8-.8.8s-.8-.4-.8-.9V.8z"/>
</symbol></svg>